<svg xmlns="http://www.w3.org/2000/svg" version="1.1" xmlns:xlink="http://www.w3.org/1999/xlink" width="512" height="512" x="0" y="0" viewBox="0 0 24 24" style="enable-background:new 0 0 512 512" xml:space="preserve" class=""><g><path fill="#90a4ae" d="M16 22h-2v-2h-4v2H8a1 1 0 0 0 0 2h8a1 1 0 1 0 0-2z" opacity="1" data-original="#90a4ae"></path><path fill="#607d8b" d="M22.25 4H1.75C.785 4 0 4.785 0 5.75v12.5C0 19.215.785 20 1.75 20h20.5c.965 0 1.75-.785 1.75-1.75V5.75C24 4.785 23.215 4 22.25 4z" opacity="1" data-original="#607d8b" class=""></path><path fill="#ffffff" d="M22 18H2V6h20z" opacity="1" data-original="#ffffff" class=""></path><g fill="#2196f3"><path d="M9 16a.75.75 0 0 1-.75-.75v-4.5a.75.75 0 0 1 1.5 0v4.5A.75.75 0 0 1 9 16z" fill="#6eacda" opacity="1" data-original="#2196f3" class=""></path><path d="M10.25 11.5h-2.5a.75.75 0 0 1 0-1.5h2.5a.75.75 0 0 1 0 1.5zM15 16a.75.75 0 0 1-.711-.513l-1.5-4.5a.75.75 0 0 1 1.423-.475L15 12.878l.789-2.366a.75.75 0 0 1 1.423.475l-1.5 4.5A.752.752 0 0 1 15 16zM12 8c-.551 0-1-.449-1-1s.449-1 1-1 1 .449 1 1-.449 1-1 1zM13.283 5.21c-.713-.916-1.853-.916-2.566 0a.75.75 0 0 1-1.184-.92C10.17 3.47 11.07 3 12 3s1.83.47 2.467 1.29a.75.75 0 1 1-1.184.92z" fill="#6eacda" opacity="1" data-original="#2196f3" class=""></path><path d="M15.158 3.21C14.302 2.107 13.18 1.5 12 1.5s-2.302.607-3.158 1.71a.749.749 0 1 1-1.184-.92C8.787.835 10.37 0 12 0s3.213.835 4.342 2.29a.75.75 0 1 1-1.184.92z" fill="#6eacda" opacity="1" data-original="#2196f3" class=""></path></g><path fill="#7d8f97" d="M12 20h-2v2H8a1 1 0 0 0 0 2h4z" opacity="1" data-original="#7d8f97" class=""></path><path fill="#546d79" d="M9.783 4H1.75C.785 4 0 4.785 0 5.75v12.5C0 19.215.785 20 1.75 20H12v-2H2V6h10V4.523c-.463 0-.927.229-1.283.687a.754.754 0 0 1-1.053.131.748.748 0 0 1-.131-1.051c.08-.102.163-.199.25-.29z" opacity="1" data-original="#546d79" class=""></path><path fill="#dedede" d="M7.75 11.5a.75.75 0 0 1 0-1.5h2.5a.75.75 0 0 1 0 1.5h-.5v3.75a.75.75 0 0 1-1.5 0V11.5zM12 6H2v12h10V8c-.551 0-1-.449-1-1s.449-1 1-1z" opacity="1" data-original="#dedede" class=""></path><path fill="#2a7fbe" d="M9.75 11.5h-1.5v3.75a.75.75 0 0 0 1.5 0zM10.25 10h-2.5a.75.75 0 0 0 0 1.5h2.5a.75.75 0 0 0 0-1.5zM12 6c-.551 0-1 .449-1 1s.449 1 1 1zM12 3c-.814 0-1.605.36-2.217 1-.087.091-.17.188-.25.29a.749.749 0 0 0 .591 1.21.752.752 0 0 0 .594-.289c.356-.458.82-.687 1.283-.687V3zM12 0c-1.63 0-3.213.835-4.342 2.29a.749.749 0 1 0 1.185.919C9.698 2.107 10.82 1.5 12 1.5z" opacity="1" data-original="#1d83d4" class=""></path></g></svg>