<svg xmlns="http://www.w3.org/2000/svg" version="1.1" xmlns:xlink="http://www.w3.org/1999/xlink" width="512" height="512" x="0" y="0" viewBox="0 0 16.933 16.933" style="enable-background:new 0 0 512 512" xml:space="preserve" class=""><g><path fill="#666666" d="m1.685 7.18 13.579-4.305c.212-.07.394-.195.287-.555l-.253-.797A1.415 1.415 0 0 0 13.518.6L1.519 4.404a1.415 1.415 0 0 0-.923 1.78l.232.732c.097.287.305.44.857.265z" opacity="1" data-original="#666666" class=""></path><path fill="#4d4d4d" d="M12.772 2.776 3.388 5.804a1.6 1.6 0 0 0-1.103-.634c-.703-.076-.817.979-.114 1.054.46.11.622.403.732.583l10.537-3.34c.11-.43-.323-.794-.668-.691z" opacity="1" data-original="#4d4d4d" class=""></path><path fill="#6eacda" d="M.982 7.976v7.014c0 .786.633 1.418 1.419 1.418h12.586c.786 0 1.419-.632 1.419-1.418V8.01c0-.41-.318-.823-.784-.823H1.772c-.402 0-.79.2-.79.788z" opacity="1" data-original="#55a1ff" class=""></path><path fill="#4196d6" d="M3.861 9.45c-.707 0-.707 1.06 0 1.06h12.57V9.45z" opacity="1" data-original="#488bff" class=""></path><path fill="#666666" d="m16.432 9.652-.002-1.628c0-.462-.359-.824-.784-.824H1.774c-.525 0-.79.316-.79.79v1.662z" opacity="1" data-original="#666666" class=""></path><path fill="#ffc861" d="M3.204 7.255a1.337 1.337 0 1 1-2.675 0 1.337 1.337 0 0 1 2.675 0z" opacity="1" data-original="#ffc861" class=""></path><path fill="#d1dcff" d="M5.935 7.2 4.273 9.652h3.44L9.037 7.2zM5.81 3.051l-3.277 1.04L5.7 5.92l2.974-.943zM11.86 7.2l-1.237 2.452h3.16l1.21-2.452zM12.144 1.043l-3.29 1.043 2.816 1.941 3.113-.986z" opacity="1" data-original="#d1dcff" class=""></path><path fill="#bfd2ff" d="m7.791 4.383-3.048.983.958.554 2.974-.943zM12.772 2.776l-1.988.641.886.61 1.77-.56c.11-.396-.294-.8-.668-.691z" opacity="1" data-original="#bfd2ff"></path><path fill="#666666" d="M2.506 12.455c-.361-.008-.361.538 0 .53h7.332c.361.008.361-.538 0-.53zm2.958 1.57c-.991.002-1.993 0-2.984 0-.325.041-.302.52.026.529h2.929c.364.032.394-.521.029-.53z" opacity="1" data-original="#666666" class=""></path></g></svg>