<svg xmlns="http://www.w3.org/2000/svg" version="1.1" xmlns:xlink="http://www.w3.org/1999/xlink" width="512" height="512" x="0" y="0" viewBox="0 0 504.5 504.5" style="enable-background:new 0 0 512 512" xml:space="preserve" class=""><g><path fill="#6eacda" d="M495.519 406.883c7.227-17.018 5.204-37.961-9.949-53.648l-73.517-77.166-13.736 71.74 61.775 65.426c5.559 5.755 9.351 12.216 11.566 18.932.001-.001 13.226-.236 23.861-25.284z" opacity="1" data-original="#9d66d6" class=""></path><path fill="#5f6c75" d="m490.852 347.969-51.05-52.717a7.499 7.499 0 0 0-10.605-.17l-43.103 41.739a7.499 7.499 0 0 0-.17 10.605l68.773 71.019c11.895 12.283 22.123 32.464 15.485 48.216l6.857-16.218c6.293-14.884-2.971-33.556-11.567-42.433l-12.477-12.884 31.928-30.84.012-.02c9.28 12.92 15.075 32.012 9.354 45.537 8.915-21.338 12.67-45.202-3.437-61.834zm-89.452-6.122 32.326-31.305 41.202 42.545-32.366 31.265z" opacity="1" data-original="#5f6c75" class=""></path><path fill="#909ba6" d="M228.546 60c-40.748 0-78.059 14.69-106.947 39.053C90.71 129.941 72.546 175.252 72.546 216c0 91.68 74.32 166 166 166 40.748 0 95.268-27.373 116.947-49.053 24.362-28.889 39.053-66.199 39.053-106.947 0-91.68-74.321-166-166-166z" opacity="1" data-original="#909ba6"></path><path fill="#5f6c75" d="M323.313 195.208c-7.661-23.579 21.471-70.355 33.651-74.395-17.918-21.85-41.301-39.042-68.061-49.492-.004 12.784-35.539 55.035-60.357 55.035s-60.354-42.251-60.357-55.035a165.92 165.92 0 0 0-46.594 27.728l-.035.039c-36.085 30.45-59.013 75.999-59.014 126.911-.001 91.588 74.435 166.014 166.023 166.001 50.922-.007 96.479-22.95 126.924-59.053-23.471 19.793-52.5 33.2-84.416 37.533a3.514 3.514 0 0 1-3.992-3.475c-.055-20.639 6.094-50.266 20.03-60.392 20.067-14.58 73.601-1.309 81.166 9.03 14.996-23.328 24.302-50.656 25.98-80.027-12.237 3.885-63.288-16.832-70.948-40.408zm-218.807-71.741c13.562 11.043 36.122 50.658 29.272 71.741-4.782 14.719-26.475 28.322-45.078 35.522-2.106.815-4.418-.586-4.713-2.826a167.141 167.141 0 0 1-1.441-21.903c0-30.049 7.996-58.223 21.96-82.534zm13.293 184.805c-1.607-2.052-.472-5.074 2.082-5.595 18.03-3.678 39.093-4.058 50.096 3.937 11.536 8.382 17.73 30.118 19.491 49.064.243 2.623-2.404 4.572-4.835 3.558-26.441-11.041-49.412-28.722-66.834-50.964z" opacity="1" data-original="#5f6c75" class=""></path><path fill="#dce6eb" d="M454.546 226c0 57.318-21.35 109.644-56.516 149.484C355.83 417.684 295.864 442 238.546 442c-124.816 0-226-101.184-226-226 0-57.318 22.298-115.266 66.516-159.484C118.902 21.35 171.227 0 228.546 0c124.816 0 226 101.184 226 226zm-226-196c-44.38 0-80.356 19.006-80.356 42.451s45.465 73.904 80.356 73.904c34.893 0 80.356-50.459 80.356-73.904S272.926 30 228.546 30zm155.263 272.991c-13.781-18.968-80.222-33.066-108.449-12.557-28.229 20.509-35.352 88.054-21.57 107.021 13.78 18.968 54.058 13.197 89.962-12.889 35.903-26.085 53.838-62.607 40.057-81.575zM42.139 165.433c-13.714 42.208-6.756 82.297 15.542 89.542s84.336-20.402 95.118-53.586c10.782-33.185-23.157-92.017-45.455-99.262s-51.492 21.098-65.205 63.306zm307.609-63.306c-22.298 7.245-56.237 66.077-45.455 99.262 10.782 33.184 72.82 60.831 95.118 53.586s29.256-47.334 15.542-89.542-42.907-70.551-65.205-63.306zM113.34 384.567c35.904 26.086 76.182 31.856 89.962 12.889 13.781-18.968 6.658-86.513-21.57-107.021-28.229-20.51-94.668-6.411-108.449 12.557-13.781 18.967 4.153 55.489 40.057 81.575z" opacity="1" data-original="#dce6eb" class=""></path><circle cx="228.546" cy="226" r="15" fill="#4190cb" opacity="1" data-original="#744b9c" class=""></circle><path fill="#b9c3cd" d="M22.546 206c0-57.318 21.35-109.644 56.516-149.484C32.146 97.927 2.546 158.502 2.546 226c0 124.816 101.184 226 226 226 67.498 0 128.072-29.601 169.484-76.516C358.189 410.65 305.864 432 248.546 432c-124.817 0-226-101.184-226-226z" opacity="1" data-original="#b9c3cd"></path><path fill="#93c4e9" d="m470.046 466.885 25.385-59.802C488.164 424.004 471.747 437 450.021 437H47.52l-10 50h407.023c8.732 0 16.602-12.103 23.369-15.712a50.848 50.848 0 0 0 2.129-4.405z" opacity="1" data-original="#bd96e4" class=""></path><path fill="#909ba6" d="M455.02 475.938v-31.746c12.158-1.429 28.014-7.904 33.53-20.9l6.88-16.208c-6.698 15.727-28.311 22.417-45.409 22.417H47.52L31.27 437l16.25 7.5h32.5V477l7.359 12.5L95.02 477v-32.5h45V477l7.359 12.5 7.641-12.5v-32.5h45V477l6.026 12.5 8.974-12.5v-32.5h45V477l6.455 12.5 8.545-12.5v-32.5h45V477l8.026 12.5 6.974-12.5v-32.5h45V477l8.026 12.5 6.974-12.5v-32.5h45V477l8.912 6.475z" opacity="1" data-original="#909ba6"></path><path fill="#6eacda" d="M52.054 477a4.532 4.532 0 0 1-4.533-4.533V437h-20v60h397.023c19.887 0 35.325-10.891 43.369-25.712-6.768 3.609-14.638 5.712-23.369 5.712z" opacity="1" data-original="#9d66d6" class=""></path><path fill="#5f6c75" d="M455.02 480.915v-4.978A51.547 51.547 0 0 1 444.543 477h-4.523v10.224c-5.295 1.487-10.622 2.276-15.477 2.276H395.02V477h-15v12.5h-45V477h-15v12.5h-45V477h-15v12.5h-45V477h-15v12.5h-45V477h-15v12.5h-45V477h-15v12.5h-45v-45h12.5v-15h-20a7.499 7.499 0 0 0-7.5 7.5v60c0 4.143 3.357 7.5 7.5 7.5h397.023c23.152 0 37.684-19.298 46.814-40.547-2.932 6.909-9.002 12.67-16.337 16.962z" opacity="1" data-original="#5f6c75" class=""></path></g></svg>